<svg xmlns="http://www.w3.org/2000/svg" xmlns:xlink="http://www.w3.org/1999/xlink" preserveAspectRatio="xMidYMid" width="15" height="16" viewBox="0 0 15 16">
  <defs>
    <style>
      .cls-1 {
        fill: #f3f3f3;
        fill-rule: evenodd;
      }
    </style>
  </defs>
  <path d="M10.417,10.434 C11.404,9.327 12.020,7.845 12.020,6.213 C12.020,2.789 9.331,-0.006 6.016,-0.006 C2.701,-0.006 0.012,2.789 0.012,6.213 C0.012,9.637 2.701,12.432 6.016,12.432 C7.365,12.432 8.606,11.972 9.611,11.194 L14.076,15.818 C14.185,15.931 14.321,15.987 14.456,15.987 C14.592,15.987 14.737,15.931 14.837,15.818 C15.045,15.602 15.045,15.246 14.837,15.021 L10.417,10.434 ZM1.099,6.213 C1.099,3.408 3.299,1.120 6.016,1.120 C8.724,1.120 10.933,3.399 10.933,6.213 C10.933,9.027 8.733,11.306 6.016,11.306 C3.299,11.306 1.099,9.018 1.099,6.213 Z" class="cls-1"/>
</svg>
