<svg xmlns="http://www.w3.org/2000/svg" xmlns:xlink="http://www.w3.org/1999/xlink" preserveAspectRatio="xMidYMid" width="12.156" height="10.594" viewBox="0 0 12.156 10.594">
  <defs>
    <style>
      .cls-1 {
        fill: #7b7a7a;
        fill-opacity: 0.9;
        fill-rule: evenodd;
      }
    </style>
  </defs>
  <path d="M12.158,1.215 L11.018,2.434 C11.018,2.434 11.018,2.323 11.018,2.637 C11.018,2.860 10.984,3.072 10.936,3.279 C10.909,4.955 10.410,7.178 8.358,8.933 C4.321,12.384 -0.003,9.339 -0.003,9.339 C3.417,9.339 3.417,8.120 3.417,8.120 C2.657,8.120 1.137,6.496 1.137,6.496 C1.517,6.902 2.277,6.496 2.277,6.496 C0.377,5.277 0.377,4.058 0.377,4.058 C0.757,4.465 1.517,4.058 1.517,4.058 C-0.384,2.434 0.757,0.403 0.757,0.403 C1.137,2.434 6.077,3.246 6.077,3.246 L6.140,3.212 C6.101,3.027 6.077,2.632 6.077,2.434 C6.077,0.976 7.183,-0.003 8.548,-0.003 C9.299,-0.003 9.963,0.363 10.416,0.928 L10.638,0.809 L11.778,-0.003 L11.018,1.621 L12.158,1.215 Z" class="cls-1"/>
</svg>
