<svg xmlns="http://www.w3.org/2000/svg" xmlns:xlink="http://www.w3.org/1999/xlink" preserveAspectRatio="xMidYMid" width="10.625" height="13" viewBox="0 0 10.625 13">
  <defs>
    <style>
      .cls-1 {
        fill: #7b7a7a;
        fill-opacity: 0.9;
        fill-rule: evenodd;
      }
    </style>
  </defs>
  <path d="M8.734,13.000 L1.893,13.000 C0.843,13.000 -0.007,12.091 -0.007,10.970 L-0.007,2.034 C-0.007,0.912 0.843,0.003 1.893,0.003 L8.734,0.003 C9.783,0.003 10.634,0.912 10.634,2.034 L10.634,10.970 C10.634,12.091 9.783,13.000 8.734,13.000 ZM5.313,3.657 C3.846,3.657 2.656,4.930 2.656,6.500 C2.656,8.070 3.846,9.344 5.313,9.344 C6.781,9.344 7.970,8.070 7.970,6.500 C7.970,4.930 6.781,3.657 5.313,3.657 ZM9.494,1.221 L7.593,1.221 L7.593,3.252 L9.494,3.252 L9.494,1.221 ZM9.874,7.314 C9.874,7.170 9.830,7.041 9.797,6.908 L9.874,6.908 L9.874,5.283 L9.114,5.283 L9.114,5.938 C9.102,5.931 9.089,5.928 9.078,5.921 C9.088,6.047 9.112,6.169 9.112,6.299 C9.112,8.653 7.411,10.562 5.313,10.562 C3.215,10.562 1.514,8.653 1.514,6.299 C1.514,6.169 1.538,6.047 1.548,5.921 C1.537,5.928 1.524,5.931 1.513,5.938 L1.513,5.283 L0.753,5.283 L0.753,6.908 L0.829,6.908 C0.796,7.041 0.753,7.170 0.753,7.314 L0.753,10.564 C0.753,11.461 1.433,12.188 2.273,12.188 L8.354,12.188 C9.193,12.188 9.874,11.461 9.874,10.564 L9.874,7.314 ZM6.771,7.035 C6.796,6.926 6.833,6.822 6.833,6.705 C6.833,5.920 6.238,5.283 5.503,5.283 C5.393,5.283 5.296,5.323 5.194,5.350 C5.403,5.069 5.711,4.877 6.073,4.877 C6.703,4.877 7.213,5.423 7.213,6.096 C7.213,6.483 7.034,6.812 6.771,7.035 Z" class="cls-1"/>
</svg>
