<svg xmlns="http://www.w3.org/2000/svg" xmlns:xlink="http://www.w3.org/1999/xlink" preserveAspectRatio="xMidYMid" width="25" height="23" viewBox="0 0 25 23">
  <defs>
    <style>
      .cls-1 {
        fill: #8d9499;
        fill-rule: evenodd;
      }
    </style>
  </defs>
  <path d="M24.848,4.370 C24.697,4.168 24.456,4.048 24.200,4.048 L6.148,4.048 C6.113,4.048 6.078,4.050 6.045,4.054 L5.302,1.961 C5.225,1.744 5.055,1.572 4.837,1.488 L1.093,0.050 C0.681,-0.108 0.215,0.090 0.053,0.493 C-0.109,0.896 0.094,1.352 0.506,1.510 L3.907,2.816 L8.069,14.544 C7.885,14.607 7.730,14.744 7.659,14.937 L6.455,18.205 C6.382,18.405 6.412,18.628 6.538,18.802 C6.663,18.976 6.867,19.080 7.084,19.080 L7.702,19.080 C7.319,19.497 7.084,20.045 7.084,20.648 C7.084,21.946 8.164,23.001 9.491,23.001 C10.818,23.001 11.898,21.946 11.898,20.648 C11.898,20.045 11.663,19.497 11.280,19.080 L16.527,19.080 C16.145,19.497 15.910,20.045 15.910,20.648 C15.910,21.946 16.989,23.001 18.317,23.001 C19.644,23.001 20.723,21.946 20.723,20.648 C20.723,20.045 20.488,19.497 20.105,19.080 L20.857,19.080 C21.226,19.080 21.526,18.787 21.526,18.426 C21.526,18.065 21.226,17.773 20.857,17.773 L8.036,17.773 L8.781,15.749 C8.877,15.788 8.981,15.812 9.090,15.812 L20.857,15.812 C21.206,15.812 21.515,15.592 21.621,15.267 L24.964,5.072 C25.042,4.833 24.999,4.572 24.848,4.370 ZM9.491,21.694 C8.901,21.694 8.421,21.225 8.421,20.648 C8.421,20.072 8.901,19.603 9.491,19.603 C10.081,19.603 10.561,20.072 10.561,20.648 C10.561,21.225 10.081,21.694 9.491,21.694 ZM18.317,21.694 C17.727,21.694 17.247,21.225 17.247,20.648 C17.247,20.072 17.727,19.603 18.317,19.603 C18.907,19.603 19.386,20.072 19.386,20.648 C19.386,21.225 18.907,21.694 18.317,21.694 ZM22.522,7.381 L18.428,7.381 L18.428,5.616 L23.100,5.616 L22.522,7.381 ZM21.343,10.976 L18.428,10.976 L18.428,8.950 L22.007,8.950 L21.343,10.976 ZM13.124,10.976 L13.124,8.950 L16.823,8.950 L16.823,10.976 L13.124,10.976 ZM16.823,12.544 L16.823,14.244 L13.124,14.244 L13.124,12.544 L16.823,12.544 ZM7.782,8.950 L11.519,8.950 L11.519,10.976 L8.501,10.976 L7.782,8.950 ZM13.124,7.381 L13.124,5.616 L16.823,5.616 L16.823,7.381 L13.124,7.381 ZM11.519,5.616 L11.519,7.381 L7.225,7.381 L6.599,5.616 L11.519,5.616 ZM9.058,12.544 L11.519,12.544 L11.519,14.244 L9.661,14.244 L9.058,12.544 ZM18.428,14.244 L18.428,12.544 L20.829,12.544 L20.272,14.244 L18.428,14.244 Z" class="cls-1"/>
</svg>
