<svg xmlns="http://www.w3.org/2000/svg" xmlns:xlink="http://www.w3.org/1999/xlink" preserveAspectRatio="xMidYMid" width="28" height="25" viewBox="0 0 28 25">
  <defs>
    <style>
      .cls-1 {
        fill: #000;
        fill-rule: evenodd;
      }
    </style>
  </defs>
  <path d="M17.930,10.547 C17.896,10.288 17.790,10.052 17.627,9.855 L18.749,3.414 C18.790,3.174 18.624,2.946 18.368,2.891 L18.356,2.888 C18.100,2.834 17.843,2.972 17.767,3.204 L15.722,9.448 C15.219,9.682 14.869,10.160 14.869,10.716 C14.869,11.502 15.560,12.141 16.409,12.141 C16.567,12.141 16.716,12.112 16.860,12.071 L21.130,14.124 C21.365,14.237 21.654,14.166 21.799,13.961 L21.805,13.952 C21.949,13.746 21.901,13.473 21.694,13.320 L17.930,10.547 ZM15.648,10.716 C15.648,10.328 15.989,10.013 16.409,10.013 C16.828,10.013 17.169,10.328 17.169,10.716 C17.169,11.104 16.828,11.420 16.409,11.420 C15.989,11.420 15.648,11.105 15.648,10.716 ZM28.000,10.716 C28.000,15.484 24.618,19.533 19.956,20.923 L19.956,19.396 C23.742,18.067 26.442,14.679 26.442,10.716 C26.442,5.599 21.941,1.435 16.409,1.435 C10.876,1.435 6.375,5.599 6.375,10.716 C6.375,11.230 6.423,11.733 6.510,12.224 L4.934,12.224 C4.859,11.731 4.817,11.228 4.817,10.716 C4.817,4.804 10.017,-0.006 16.409,-0.006 C22.800,-0.006 28.000,4.804 28.000,10.716 ZM18.429,18.356 L14.861,15.092 C14.635,14.883 14.327,14.767 14.012,14.767 L12.212,14.767 L12.212,14.144 C12.212,13.679 11.803,13.305 11.301,13.305 L0.908,13.305 C0.405,13.305 0.000,13.679 0.000,14.144 L0.000,19.765 L18.788,19.765 L18.788,19.153 C18.788,18.854 18.659,18.565 18.429,18.356 ZM16.875,18.464 L13.420,18.464 C13.342,18.464 13.279,18.407 13.279,18.335 L13.279,15.866 C13.279,15.794 13.342,15.737 13.420,15.737 L14.078,15.737 C14.113,15.737 14.152,15.751 14.179,15.773 L16.972,18.241 C17.066,18.320 17.004,18.464 16.875,18.464 ZM18.788,20.230 L18.788,22.089 C18.788,22.553 18.381,22.929 17.880,22.929 L16.908,22.929 C16.733,21.815 15.695,20.958 14.441,20.958 C13.191,20.958 12.153,21.815 11.978,22.929 L7.053,22.929 C6.877,21.815 5.839,20.958 4.589,20.958 C3.339,20.958 2.300,21.815 2.125,22.929 L0.908,22.929 C0.407,22.929 0.000,22.553 0.000,22.089 L0.000,20.230 L18.788,20.230 ZM14.444,21.520 C13.404,21.520 12.559,22.298 12.559,23.260 C12.559,24.223 13.404,25.005 14.444,25.005 C15.484,25.005 16.326,24.223 16.326,23.260 C16.326,22.298 15.484,21.520 14.444,21.520 ZM14.444,24.133 C13.922,24.133 13.502,23.743 13.502,23.260 C13.502,22.781 13.922,22.389 14.444,22.389 C14.962,22.389 15.383,22.781 15.383,23.260 C15.383,23.743 14.962,24.133 14.444,24.133 ZM4.589,21.520 C3.549,21.520 2.703,22.298 2.703,23.260 C2.703,24.223 3.549,25.005 4.589,25.005 C5.629,25.005 6.470,24.223 6.470,23.260 C6.470,22.298 5.629,21.520 4.589,21.520 ZM4.589,24.133 C4.067,24.133 3.646,23.743 3.646,23.260 C3.646,22.781 4.067,22.389 4.589,22.389 C5.107,22.389 5.532,22.781 5.532,23.260 C5.532,23.743 5.107,24.133 4.589,24.133 Z" class="cls-1"/>
</svg>
