<svg xmlns="http://www.w3.org/2000/svg" xmlns:xlink="http://www.w3.org/1999/xlink" preserveAspectRatio="xMidYMid" width="11.406" height="12.375" viewBox="0 0 11.406 12.375">
  <defs>
    <style>
      .cls-1 {
        fill: #7b7a7a;
        fill-opacity: 0.9;
        fill-rule: evenodd;
      }
    </style>
  </defs>
  <path d="M5.702,12.372 C2.552,12.372 -0.001,9.605 -0.001,6.191 C-0.001,2.776 2.552,0.009 5.702,0.009 C8.852,0.009 11.405,2.776 11.405,6.191 C11.405,9.605 8.852,12.372 5.702,12.372 ZM10.187,6.874 C9.620,6.723 8.581,6.534 7.400,6.690 C8.029,8.456 8.288,9.843 8.347,10.207 C9.340,9.438 10.008,8.242 10.187,6.874 ZM7.530,10.716 C7.300,9.354 6.900,8.068 6.445,6.891 C5.165,7.277 3.839,8.174 2.835,10.008 C3.620,10.702 4.610,11.136 5.702,11.136 C6.353,11.136 6.970,10.983 7.530,10.716 ZM1.140,6.191 C1.140,7.382 1.544,8.460 2.192,9.314 C2.700,8.407 3.919,6.705 6.100,6.034 C5.954,5.696 5.807,5.359 5.657,5.047 C3.586,5.915 2.026,5.982 1.159,5.908 C1.154,6.002 1.140,6.094 1.140,6.191 ZM1.282,5.015 C2.439,5.027 3.964,4.810 5.280,4.299 C4.679,3.144 4.109,2.240 3.763,1.730 C2.535,2.359 1.613,3.559 1.282,5.015 ZM5.702,1.245 C5.328,1.245 4.970,1.308 4.622,1.400 C5.235,2.212 5.748,3.057 6.184,3.890 C7.366,3.285 8.140,2.647 8.500,2.310 C7.725,1.653 6.762,1.245 5.702,1.245 ZM9.173,3.015 C8.240,3.697 7.365,4.228 6.554,4.634 C6.746,5.040 6.914,5.435 7.070,5.823 C7.987,5.695 9.045,5.756 10.256,6.091 C10.233,4.916 9.825,3.852 9.173,3.015 Z" class="cls-1"/>
</svg>
