<svg xmlns="http://www.w3.org/2000/svg" xmlns:xlink="http://www.w3.org/1999/xlink" preserveAspectRatio="xMidYMid" width="15" height="15" viewBox="0 0 15 15">
  <defs>
    <style>
      .cls-1 {
        fill: #000;
        fill-rule: evenodd;
      }
    </style>
  </defs>
  <path d="M7.500,15.000 C7.359,15.000 7.224,14.937 7.128,14.827 L1.133,7.911 C1.131,7.909 1.130,7.907 1.128,7.905 C0.401,7.043 0.000,5.900 0.000,4.687 C0.000,3.474 0.401,2.332 1.128,1.469 L1.220,1.361 C1.960,0.484 2.949,0.000 4.004,0.000 C5.060,0.000 6.049,0.484 6.789,1.361 L7.500,2.203 L8.211,1.361 C8.951,0.484 9.940,0.000 10.996,0.000 C12.051,0.000 13.040,0.484 13.781,1.361 L13.872,1.469 C14.599,2.332 15.000,3.475 15.000,4.687 C15.000,5.900 14.599,7.043 13.872,7.905 C13.870,7.907 13.869,7.909 13.867,7.911 L7.872,14.827 C7.776,14.937 7.641,15.000 7.500,15.000 ZM1.879,7.175 L7.500,13.659 L13.121,7.175 C14.277,5.801 14.276,3.569 13.118,2.197 L13.028,2.090 C12.481,1.443 11.760,1.086 10.996,1.086 C10.231,1.086 9.510,1.443 8.964,2.089 L7.877,3.378 C7.780,3.492 7.644,3.557 7.500,3.557 C7.357,3.557 7.220,3.492 7.124,3.378 L6.036,2.089 C5.490,1.443 4.769,1.086 4.005,1.086 C3.240,1.086 2.519,1.443 1.973,2.089 L1.882,2.197 C0.724,3.570 0.723,5.801 1.879,7.175 Z" class="cls-1"/>
</svg>
