<svg xmlns="http://www.w3.org/2000/svg" xmlns:xlink="http://www.w3.org/1999/xlink" preserveAspectRatio="xMidYMid" width="12.875" height="12" viewBox="0 0 12.875 12">
  <defs>
    <style>
      .cls-1 {
        fill: #8d9499;
        fill-rule: evenodd;
      }
    </style>
  </defs>
  <path d="M12.685,11.818 L4.182,11.818 C4.080,11.818 3.997,11.733 3.997,11.629 L3.997,9.423 C3.997,9.319 4.080,9.234 4.182,9.234 L12.685,9.234 C12.787,9.234 12.869,9.319 12.869,9.423 L12.869,11.629 C12.869,11.733 12.787,11.818 12.685,11.818 ZM12.685,7.292 L4.182,7.292 C4.080,7.292 3.997,7.207 3.997,7.103 L3.997,4.897 C3.997,4.793 4.080,4.708 4.182,4.708 L12.685,4.708 C12.787,4.708 12.869,4.793 12.869,4.897 L12.869,7.103 C12.869,7.207 12.787,7.292 12.685,7.292 ZM12.685,2.766 L4.182,2.766 C4.080,2.766 3.997,2.681 3.997,2.577 L3.997,0.371 C3.997,0.267 4.080,0.182 4.182,0.182 L12.685,0.182 C12.787,0.182 12.869,0.267 12.869,0.371 L12.869,2.577 C12.869,2.681 12.787,2.766 12.685,2.766 ZM1.439,12.000 C0.644,12.000 0.000,11.340 0.000,10.526 C0.000,9.712 0.644,9.052 1.439,9.052 C2.233,9.052 2.878,9.712 2.878,10.526 C2.878,11.340 2.233,12.000 1.439,12.000 ZM1.439,7.474 C0.644,7.474 0.000,6.814 0.000,6.000 C0.000,5.186 0.644,4.526 1.439,4.526 C2.233,4.526 2.878,5.186 2.878,6.000 C2.878,6.814 2.233,7.474 1.439,7.474 ZM1.439,2.948 C0.644,2.948 0.000,2.288 0.000,1.474 C0.000,0.660 0.644,-0.000 1.439,-0.000 C2.233,-0.000 2.878,0.660 2.878,1.474 C2.878,2.288 2.233,2.948 1.439,2.948 Z" class="cls-1"/>
</svg>
