<svg xmlns="http://www.w3.org/2000/svg" xmlns:xlink="http://www.w3.org/1999/xlink" preserveAspectRatio="xMidYMid" width="10" height="18" viewBox="0 0 10 18">
  <defs>
    <style>
      .cls-1 {
        fill: #505050;
        fill-rule: evenodd;
      }
    </style>
  </defs>
  <path d="M9.042,18.002 L8.254,18.002 C7.996,18.002 7.750,17.905 7.571,17.718 C7.392,17.532 7.295,17.288 7.304,17.029 L7.492,10.970 L7.460,10.970 C7.124,10.970 6.805,10.826 6.576,10.579 C6.347,10.332 6.231,9.997 6.256,9.660 L6.805,1.921 C6.882,0.837 7.780,-0.004 8.859,-0.004 C9.488,-0.004 10.005,0.511 10.004,1.146 L10.004,17.056 C10.004,17.585 9.567,18.002 9.042,18.002 ZM3.532,6.643 L3.316,6.643 L3.638,17.023 C3.645,17.283 3.549,17.531 3.370,17.717 C3.191,17.904 2.944,18.002 2.687,18.002 L1.929,18.002 C1.672,18.002 1.425,17.904 1.247,17.717 C1.067,17.531 0.971,17.286 0.979,17.027 L1.300,6.643 L1.148,6.643 C0.519,6.643 0.006,6.141 0.006,5.507 L0.006,0.348 C0.006,0.154 0.165,0.009 0.357,0.009 L0.438,0.009 C0.630,0.009 0.797,0.155 0.797,0.348 L0.797,3.759 C0.797,4.061 1.029,4.309 1.329,4.309 L1.409,4.309 C1.709,4.309 1.955,4.061 1.955,3.759 L1.955,0.348 C1.955,0.154 2.108,0.009 2.300,0.009 L2.382,0.009 C2.574,0.009 2.718,0.155 2.718,0.348 L2.718,3.759 C2.718,4.061 2.972,4.309 3.272,4.309 L3.353,4.309 C3.653,4.309 3.904,4.061 3.904,3.759 L3.904,0.348 C3.904,0.154 4.052,0.009 4.243,0.009 L4.324,0.009 C4.516,0.009 4.666,0.154 4.667,0.348 L4.667,5.506 C4.667,6.140 4.162,6.643 3.532,6.643 Z" class="cls-1"/>
</svg>
