<svg xmlns="http://www.w3.org/2000/svg" xmlns:xlink="http://www.w3.org/1999/xlink" preserveAspectRatio="xMidYMid" width="14" height="14" viewBox="0 0 14 14">
  <defs>
    <style>
      .cls-1 {
        fill: #505050;
        fill-rule: evenodd;
      }
    </style>
  </defs>
  <path d="M12.250,4.844 L12.250,12.250 C12.250,13.217 11.466,14.000 10.500,14.000 L1.750,14.000 C0.784,14.000 -0.000,13.217 -0.000,12.250 L-0.000,3.500 C-0.000,2.534 0.784,1.750 1.750,1.750 L9.156,1.750 L7.407,3.500 L1.750,3.500 L1.750,12.250 L10.500,12.250 L10.500,6.594 L12.250,4.844 ZM10.907,1.237 L10.288,1.856 L12.144,3.712 L12.763,3.094 L10.907,1.237 ZM12.144,0.000 L11.525,0.619 L13.381,2.475 L14.000,1.856 L12.144,0.000 ZM4.102,8.044 L5.957,9.900 L11.525,4.331 L9.669,2.475 L4.102,8.044 ZM3.500,10.500 L5.250,10.500 L3.500,8.750 L3.500,10.500 Z" class="cls-1"/>
</svg>
