<?xml version="1.0" encoding="UTF-8" standalone="no"?>
<svg width="75px" height="78px" viewBox="0 0 75 78" version="1.1" xmlns="http://www.w3.org/2000/svg" xmlns:xlink="http://www.w3.org/1999/xlink" xmlns:sketch="http://www.bohemiancoding.com/sketch/ns">
    <!-- Generator: Sketch 3.3.2 (12043) - http://www.bohemiancoding.com/sketch -->
    <title>snow</title>
    <desc>Created with Sketch.</desc>
    <defs></defs>
    <g id="Page-1" stroke="none" stroke-width="1" fill="none" fill-rule="evenodd" sketch:type="MSPage">
        <path d="M35.028,0 L35.028,13.172 L25.028,3.173 L22.2,6 L35.028,18.828 L35.028,35.536 L20.559,27.182 L15.863,9.659 L12,10.694 L15.66,24.354 L4.253,17.768 L2.253,21.233 L13.66,27.819 L0,31.478 L1.035,35.342 L18.559,30.647 L33.027,39.001 L18.559,47.354 L1.035,42.658 L0,46.522 L13.66,50.182 L2.253,56.768 L4.253,60.232 L15.66,53.647 L12,67.307 L15.863,68.342 L20.559,50.819 L35.028,42.465 L35.028,59.172 L22.2,72 L25.028,74.829 L35.028,64.829 L35.028,78 L39.029,78 L39.029,64.829 L49.028,74.829 L51.856,72 L39.029,59.172 L39.029,42.465 L53.498,50.819 L58.193,68.342 L62.057,67.307 L58.396,53.647 L69.804,60.232 L71.804,56.768 L60.396,50.182 L74.057,46.522 L73.021,42.658 L55.498,47.354 L41.029,39.001 L55.498,30.647 L73.021,35.342 L74.057,31.478 L60.396,27.819 L71.804,21.233 L69.804,17.768 L58.396,24.354 L62.057,10.694 L58.193,9.659 L53.498,27.182 L39.029,35.536 L39.029,18.828 L51.856,6 L49.028,3.173 L39.029,13.172 L39.029,0 L35.028,0 Z" id="snow" fill="#000000" sketch:type="MSShapeGroup"></path>
    </g>
</svg>